<svg width="24" height="24" viewBox="0 0 24 24" fill="none" xmlns="http://www.w3.org/2000/svg">
<g clip-path="url(#clip0_1_869)">
<path fill-rule="evenodd" clip-rule="evenodd" d="M10.2639 5.20154C12.1091 5.20154 13.6223 6.83364 13.6223 8.47874C13.6223 9.37445 13.1788 10.4301 12.477 11.206C13.6183 11.7267 14.8137 12.545 15.5344 13.4874C16.6907 14.9992 16.486 15.8303 16.486 17.266C16.486 20.2447 4.44341 20.2413 4.33148 17.266C4.27787 15.8409 4.21726 15.0722 5.22967 13.5783C5.88282 12.6145 7.01159 11.7727 8.11146 11.2334C7.39471 10.4565 6.94011 9.38564 6.94011 8.47874C6.94011 6.83364 8.41865 5.20154 10.2639 5.20154Z" stroke="black" stroke-width="1.5" stroke-linecap="round" stroke-linejoin="round"/>
<path d="M14.5 5C16.1915 5 17.3503 6.62943 17.3503 7.81662C17.3503 8.65262 17.1562 9.60143 16.5128 10.3256C17.559 10.8116 18.6548 11.5753 19.3154 12.4549C20.3753 13.8659 20.1878 15.4429 20.1878 15.9149C20.1878 16.6011 19.5213 17.118 18.5174 17.4655" stroke="black" stroke-width="1.5" stroke-linecap="round" stroke-linejoin="round"/>
</g>
<defs>
<clipPath id="clip0_1_869">
<rect width="24" height="24" fill="white"/>
</clipPath>
</defs>
</svg>
