<svg width="24" height="24" viewBox="0 0 24 24" fill="none" xmlns="http://www.w3.org/2000/svg">
<g clip-path="url(#clip0_1_1075)">
<path d="M13.8526 8C12.7962 7.43824 12.8456 6.70413 13.3323 6.14308C13.819 5.58203 14.5533 4.75189 13.3323 4" stroke="black" stroke-width="1.5" stroke-linecap="round" stroke-linejoin="round"/>
<path d="M10.8526 9C9.7962 8.43824 9.84561 7.70413 10.3323 7.14308C10.819 6.58203 11.5533 5.75189 10.3323 5" stroke="black" stroke-width="1.5" stroke-linecap="round" stroke-linejoin="round"/>
<path fill-rule="evenodd" clip-rule="evenodd" d="M6.5 11H17.5C18.0523 11 18.5 11.4477 18.5 12V12.5C18.5 16.0899 15.5899 19 12 19C8.41015 19 5.5 16.0899 5.5 12.5V12C5.5 11.4477 5.94772 11 6.5 11Z" stroke="black" stroke-width="1.5" stroke-linecap="round" stroke-linejoin="round"/>
<path d="M18.5 13C19.6046 13 20.5 13.8954 20.5 15C20.5 16.1046 19.6046 17 18.5 17H16.9208" stroke="black" stroke-width="1.5" stroke-linecap="round" stroke-linejoin="round"/>
</g>
<rect x="0.5" y="0.5" width="23" height="23" stroke="#464646"/>
<defs>
<clipPath id="clip0_1_1075">
<rect width="24" height="24" fill="white"/>
</clipPath>
</defs>
</svg>
