<svg width="24" height="24" viewBox="0 0 24 24" fill="none" xmlns="http://www.w3.org/2000/svg">
<g clip-path="url(#clip0_1_1113)">
<path fill-rule="evenodd" clip-rule="evenodd" d="M13.5 4.57734L18.4282 7.42264C19.047 7.7799 19.4282 8.44016 19.4282 9.15469V14.8453C19.4282 15.5598 19.047 16.2201 18.4282 16.5773L13.5 19.4226C12.8812 19.7799 12.1188 19.7799 11.5 19.4226L6.57178 16.5773C5.95298 16.2201 5.57178 15.5598 5.57178 14.8453V9.15469C5.57178 8.44016 5.95298 7.7799 6.57178 7.42264L11.5 4.57734C12.1188 4.22007 12.8812 4.22007 13.5 4.57734ZM14.6789 10.763C13.9885 9.56707 12.4635 9.15808 11.2636 9.85084C10.067 10.5417 9.65833 12.0671 10.3488 13.263C11.0416 14.463 12.567 14.8718 13.7636 14.181C14.9635 13.4882 15.3718 11.963 14.6789 10.763Z" stroke="black" stroke-width="1.5" stroke-linejoin="round"/>
</g>
<defs>
<clipPath id="clip0_1_1113">
<rect width="24" height="24" fill="white"/>
</clipPath>
</defs>
</svg>
